# xmcd CD database file
#
# Track frame offsets:
#	150
#	2733
#	19358
#	56615
#	74751
#	95464
#	114774
#	136376
#	141832
#	154147
#	182414
#	206318
#	234868
#
# Disc length: 3510 seconds
#
# Revision: 0
# Processed by: cddbd v1.5.2PL0 Copyright (c) Steve Scherf et al.
# Submitted via: CDex 1.70beta2
#
DISCID=a90db40d
DTITLE=Estradasphere - Palace of Mirrors
DYEAR=2006
DGENRE=Jazz
TTITLE0=Title
TTITLE1=Palace Of Mirrors
TTITLE2=A Corporate Merger
TTITLE3=The Terrible Beautypower Of Meow
TTITLE4=Colossal Risk
TTITLE5=The Unfolding Pause On The Threshold
TTITLE6=Smuggled Mutation
TTITLE7=Six Hands
TTITLE8=The Debutante
TTITLE9=Flower Garden of an Evil Man
TTITLE10=Those Who Know...
TTITLE11=Palace of Mirrors Reprise
TTITLE12=The Return
EXTD=YEAR: 2006
EXTT0=
EXTT1=
EXTT2=
EXTT3=
EXTT4=
EXTT5=
EXTT6=
EXTT7=
EXTT8=
EXTT9=
EXTT10=
EXTT11=
EXTT12=
PLAYORDER=
